PathFileType	4	(X/Y/Z)	output.trc
DataRate	CameraRate	NumFrames	NumMarkers	Units	OrigDataRate	OrigDataStartFrame	OrigNumFrames
100	100	12	23	m	100	2254	6010
Frame#	Time	C7			T8			EL			EM			US			RS			AA			Fore_Clus_1			Fore_Clus_2			Fore_Clus_3			Fore_Clus_4			Hum_Clus_1			Hum_Clus_2			Hum_Clus_3			Hum_Clus_4			Thor_Clus_1			Thor_Clus_2			Thor_Clus_3			Thor_Clus_4			IJ			PX			GH			Thor_Clus_5		
		X1	Y1	Z1	X2	Y2	Z2	X3	Y3	Z3	X4	Y4	Z4	X5	Y5	Z5	X6	Y6	Z6	X7	Y7	Z7	X8	Y8	Z8	X9	Y9	Z9	X10	Y10	Z10	X11	Y11	Z11	X12	Y12	Z12	X13	Y13	Z13	X14	Y14	Z14	X15	Y15	Z15	X16	Y16	Z16	X17	Y17	Z17	X18	Y18	Z18	X19	Y19	Z19	X20	Y20	Z20	X21	Y21	Z21	X22	Y22	Z22	X23	Y23	Z23
2253	22.530000	0.010348	1.495627	-0.125407	0.003030	1.250635	-0.202712	-0.214302	1.099734	-0.023151	-0.162693	1.084850	-0.064228	-0.210277	0.860131	0.039953	-0.164704	0.869357	0.066714	-0.152302	1.405559	-0.028723	-0.232925	0.913767	0.059716	-0.228687	0.862673	0.074017	-0.205607	0.868890	0.090160	-0.196582	0.925525	0.084815	-0.211736	1.199518	0.032586	-0.233455	1.212052	-0.022357	-0.236886	1.275282	-0.018050	-0.208561	1.273577	0.033338	0.114838	1.371467	0.032006	0.067577	1.315134	0.073376	0.072486	1.365484	0.044983	0.128441	1.323930	0.054276	0.051301	1.401256	-0.020796	0.088027	1.201612	0.017270	-0.122212	1.384300	-0.015431	0.061442	1.336287	0.063483
2254	22.540000	0.010237	1.495628	-0.125304	0.002903	1.250639	-0.202619	-0.214294	1.099655	-0.023151	-0.162696	1.084811	-0.064256	-0.210561	0.860041	0.039545	-0.164963	0.869142	0.066308	-0.152419	1.405566	-0.028625	-0.233282	0.913641	0.058958	-0.228894	0.862478	0.073708	-0.205866	0.868687	0.089840	-0.196787	0.925338	0.084640	-0.211756	1.199420	0.032610	-0.233493	1.211963	-0.022347	-0.236963	1.275178	-0.017983	-0.208623	1.273477	0.033382	0.114724	1.371444	0.032087	0.067458	1.315115	0.073480	0.072378	1.365468	0.045092	0.128325	1.323895	0.054370	0.051183	1.401249	-0.020696	0.087896	1.201601	0.017361	-0.122324	1.384257	-0.015348	0.061323	1.336265	0.063593
2255	22.550000	0.010109	1.495620	-0.125204	0.002784	1.250635	-0.202532	-0.214281	1.099558	-0.023132	-0.162698	1.084753	-0.064270	-0.210796	0.859936	0.039162	-0.165178	0.868921	0.065929	-0.152545	1.405547	-0.028531	-0.233483	0.914224	0.058579	-0.229210	0.862287	0.073418	-0.206204	0.868487	0.089505	-0.196986	0.925108	0.084389	-0.211752	1.199295	0.032638	-0.233514	1.211859	-0.022291	-0.237030	1.275059	-0.017905	-0.208671	1.273369	0.033432	0.114616	1.371421	0.032186	0.067336	1.315088	0.073566	0.072259	1.365430	0.045184	0.128239	1.323863	0.054459	0.051058	1.401237	-0.020601	0.087777	1.201588	0.017446	-0.122431	1.384198	-0.015264	0.061200	1.336232	0.063671
2256	22.560000	0.009958	1.495608	-0.125098	0.002661	1.250629	-0.202447	-0.214266	1.099449	-0.023095	-0.162701	1.084680	-0.064268	-0.210983	0.859816	0.038806	-0.165349	0.868697	0.065579	-0.152682	1.405507	-0.028427	-0.233582	0.914162	0.058478	-0.229483	0.862130	0.073170	-0.206715	0.868643	0.088732	-0.197149	0.924884	0.084179	-0.211749	1.199171	0.032702	-0.233542	1.211754	-0.022231	-0.237081	1.274943	-0.017820	-0.208705	1.273251	0.033499	0.114504	1.371392	0.032263	0.067216	1.315062	0.073662	0.072143	1.365404	0.045274	0.128274	1.323672	0.054504	0.050922	1.401221	-0.020504	0.087668	1.201574	0.017524	-0.122537	1.384125	-0.015183	0.061062	1.336203	0.063768
2257	22.570000	0.009788	1.495597	-0.124985	0.002539	1.250628	-0.202369	-0.214257	1.099330	-0.023043	-0.162711	1.084596	-0.064252	-0.211131	0.859681	0.038484	-0.165485	0.868471	0.065268	-0.152826	1.405447	-0.028317	-0.233428	0.913757	0.058560	-0.229660	0.861920	0.072853	-0.206864	0.868344	0.088540	-0.197294	0.924676	0.084047	-0.211740	1.199016	0.032759	-0.233570	1.211626	-0.022164	-0.237152	1.274809	-0.017724	-0.208752	1.273122	0.033570	0.114380	1.371360	0.032361	0.067100	1.315033	0.073739	0.072017	1.365357	0.045366	0.128123	1.323656	0.054616	0.050779	1.401204	-0.020408	0.087571	1.201559	0.017589	-0.122639	1.384042	-0.015099	0.060940	1.336158	0.063842
2258	22.580000	0.009601	1.495589	-0.124863	0.002417	1.250634	-0.202299	-0.214256	1.099208	-0.022977	-0.162731	1.084504	-0.064223	-0.211245	0.859536	0.038201	-0.165593	0.868246	0.065001	-0.152977	1.405370	-0.028198	-0.233289	0.913193	0.058409	-0.229766	0.861668	0.072529	-0.207027	0.868092	0.088280	-0.197437	0.924383	0.083883	-0.211743	1.198869	0.032836	-0.233607	1.211492	-0.022101	-0.237219	1.274671	-0.017645	-0.208794	1.272980	0.033665	0.114256	1.371337	0.032446	0.066984	1.315002	0.073809	0.071890	1.365313	0.045434	0.128024	1.323632	0.054701	0.050630	1.401185	-0.020310	0.087484	1.201543	0.017641	-0.122739	1.383952	-0.015013	0.060824	1.336126	0.063908
2259	22.590000	0.009396	1.495587	-0.124726	0.002287	1.250653	-0.202234	-0.214266	1.099086	-0.022902	-0.162759	1.084409	-0.064180	-0.211328	0.859381	0.037960	-0.165675	0.868025	0.064779	-0.153134	1.405282	-0.028063	-0.233859	0.913526	0.057862	-0.229865	0.861421	0.072237	-0.207152	0.867810	0.088074	-0.197550	0.924092	0.083777	-0.211767	1.198703	0.032944	-0.233651	1.211344	-0.022011	-0.237293	1.274549	-0.017545	-0.208851	1.272825	0.033769	0.114145	1.371315	0.032534	0.066882	1.314962	0.073866	0.071772	1.365291	0.045517	0.127912	1.323598	0.054782	0.050476	1.401168	-0.020208	0.087407	1.201528	0.017678	-0.122839	1.383859	-0.014924	0.060685	1.336075	0.063998
2260	22.600000	0.009182	1.495594	-0.124580	0.002160	1.250685	-0.202178	-0.214289	1.098969	-0.022820	-0.162799	1.084315	-0.064128	-0.211392	0.859222	0.037767	-0.165741	0.867811	0.064609	-0.153294	1.405185	-0.027921	-0.233448	0.912792	0.058039	-0.229952	0.861207	0.072048	-0.207225	0.867534	0.087829	-0.197604	0.923842	0.083658	-0.211797	1.198558	0.033035	-0.233703	1.211216	-0.021916	-0.237377	1.274415	-0.017441	-0.208916	1.272688	0.033874	0.114012	1.371297	0.032647	0.066771	1.314933	0.073945	0.071657	1.365258	0.045592	0.127815	1.323586	0.054844	0.050319	1.401152	-0.020104	0.087339	1.201513	0.017700	-0.122940	1.383766	-0.014828	0.060570	1.336039	0.064091
2261	22.610000	0.008957	1.495609	-0.124420	0.002024	1.250733	-0.202127	-0.214323	1.098860	-0.022733	-0.162847	1.084228	-0.064065	-0.211438	0.859061	0.037621	-0.165793	0.867610	0.064485	-0.153457	1.405085	-0.027764	-0.233682	0.912756	0.057658	-0.229991	0.860965	0.071884	-0.207286	0.867324	0.087652	-0.197609	0.923602	0.083580	-0.211824	1.198425	0.033128	-0.233757	1.211078	-0.021799	-0.237449	1.274272	-0.017312	-0.208985	1.272558	0.033987	0.113914	1.371258	0.032729	0.066651	1.314902	0.074021	0.071521	1.365204	0.045659	0.127730	1.323588	0.054843	0.050160	1.401138	-0.019997	0.087277	1.201498	0.017709	-0.123044	1.383680	-0.014726	0.060454	1.335985	0.064169
2262	22.620000	0.008727	1.495633	-0.124251	0.001888	1.250794	-0.202082	-0.214369	1.098763	-0.022644	-0.162901	1.084149	-0.063994	-0.211476	0.858904	0.037525	-0.165839	0.867422	0.064412	-0.153619	1.404984	-0.027600	-0.233975	0.912798	0.057209	-0.230009	0.860770	0.071775	-0.207144	0.866834	0.087864	-0.197592	0.923373	0.083506	-0.211853	1.198320	0.033221	-0.233832	1.210957	-0.021670	-0.237515	1.274161	-0.017174	-0.209052	1.272447	0.034094	0.113635	1.371360	0.032891	0.066574	1.314837	0.074077	0.071384	1.365174	0.045743	0.127659	1.323639	0.054761	0.050001	1.401127	-0.019887	0.087220	1.201485	0.017706	-0.123153	1.383602	-0.014618	0.060345	1.335942	0.064246
2263	22.630000	0.008498	1.495665	-0.124076	0.001750	1.250866	-0.202043	-0.214422	1.098679	-0.022554	-0.162960	1.084082	-0.063916	-0.211510	0.858754	0.037478	-0.165881	0.867252	0.064385	-0.153780	1.404886	-0.027431	-0.233953	0.912628	0.057335	-0.230025	0.860595	0.071705	-0.207030	0.866433	0.088036	-0.197578	0.923200	0.083432	-0.211896	1.198240	0.033337	-0.233908	1.210862	-0.021538	-0.237587	1.274057	-0.017021	-0.209114	1.272355	0.034214	0.113396	1.371435	0.033015	0.066381	1.314931	0.074133	0.071258	1.365135	0.045820	0.127565	1.323603	0.054840	0.049844	1.401119	-0.019777	0.087165	1.201473	0.017694	-0.123269	1.383537	-0.014503	0.060249	1.335904	0.064316
2264	22.640000	0.008270	1.495703	-0.123896	0.001607	1.250948	-0.202007	-0.214480	1.098608	-0.022463	-0.163017	1.084029	-0.063831	-0.211546	0.858613	0.037478	-0.165924	0.867103	0.064399	-0.153939	1.404796	-0.027257	-0.233955	0.912494	0.057334	-0.230018	0.860462	0.071663	-0.207002	0.866310	0.087907	-0.197571	0.923043	0.083421	-0.211935	1.198177	0.033452	-0.233987	1.210789	-0.021392	-0.237665	1.274000	-0.016886	-0.209185	1.272297	0.034322	0.113301	1.371412	0.033080	0.066343	1.314941	0.074244	0.071112	1.365102	0.045905	0.127419	1.323642	0.054930	0.049689	1.401114	-0.019665	0.087109	1.201462	0.017675	-0.123393	1.383486	-0.014384	0.060105	1.335853	0.064394
